<svg width="19" height="19" viewBox="0 0 19 19" fill="none" xmlns="http://www.w3.org/2000/svg">
<path d="M18.8343 3.77058C18.7682 3.69154 18.6856 3.62797 18.5923 3.58435C18.499 3.54073 18.3973 3.51814 18.2943 3.51815H4.10566L3.5709 0.577858C3.54145 0.41573 3.45603 0.269083 3.32953 0.163482C3.20304 0.0578809 3.04349 2.51575e-05 2.87871 1.34207e-06H0.703628C0.517015 1.34207e-06 0.338045 0.0741336 0.20609 0.20609C0.0741344 0.338046 2.68412e-06 0.517017 2.68412e-06 0.703632C2.68412e-06 0.890246 0.0741344 1.06922 0.20609 1.20117C0.338045 1.33313 0.517015 1.40726 0.703628 1.40726H2.28679L4.53487 13.7463C4.60109 14.1122 4.76281 14.4542 5.00366 14.7375C4.67124 15.048 4.4313 15.4445 4.31046 15.8831C4.18962 16.3216 4.1926 16.785 4.31906 17.222C4.44552 17.6589 4.69052 18.0523 5.0269 18.3585C5.36328 18.6647 5.77789 18.8717 6.22476 18.9567C6.67163 19.0416 7.1333 19.0011 7.55857 18.8397C7.98384 18.6783 8.35609 18.4023 8.63405 18.0422C8.91201 17.6821 9.08482 17.2521 9.13332 16.7998C9.18181 16.3476 9.10409 15.8907 8.90878 15.4799H12.9036C12.7462 15.8094 12.6647 16.1701 12.6653 16.5353C12.6653 17.0224 12.8097 17.4985 13.0803 17.9035C13.3509 18.3085 13.7355 18.6242 14.1855 18.8106C14.6355 18.997 15.1307 19.0457 15.6084 18.9507C16.0861 18.8557 16.5249 18.6211 16.8693 18.2767C17.2138 17.9323 17.4483 17.4935 17.5433 17.0158C17.6383 16.538 17.5896 16.0429 17.4032 15.5929C17.2168 15.1429 16.9011 14.7583 16.4961 14.4877C16.0912 14.217 15.615 14.0726 15.128 14.0726H6.61144C6.44666 14.0726 6.28712 14.0147 6.16062 13.9091C6.03413 13.8035 5.94871 13.6569 5.91925 13.4948L5.64044 11.9617H15.843C16.3374 11.9616 16.816 11.7881 17.1955 11.4713C17.575 11.1545 17.8312 10.7145 17.9196 10.2281L18.9891 4.34756C19.0072 4.24592 19.0027 4.14154 18.976 4.04183C18.9492 3.94211 18.9009 3.84951 18.8343 3.77058ZM7.73988 16.5353C7.73988 16.7441 7.67798 16.9481 7.56201 17.1217C7.44604 17.2953 7.2812 17.4305 7.08834 17.5104C6.89549 17.5903 6.68327 17.6112 6.47854 17.5705C6.2738 17.5298 6.08574 17.4292 5.93814 17.2816C5.79053 17.134 5.69001 16.946 5.64929 16.7412C5.60856 16.5365 5.62946 16.3243 5.70935 16.1314C5.78923 15.9386 5.92451 15.7737 6.09808 15.6577C6.27164 15.5418 6.4757 15.4799 6.68445 15.4799C6.96437 15.4799 7.23282 15.5911 7.43075 15.789C7.62869 15.9869 7.73988 16.2554 7.73988 16.5353ZM16.1834 16.5353C16.1834 16.7441 16.1215 16.9481 16.0055 17.1217C15.8895 17.2953 15.7247 17.4305 15.5318 17.5104C15.339 17.5903 15.1268 17.6112 14.922 17.5705C14.7173 17.5298 14.5293 17.4292 14.3816 17.2816C14.234 17.134 14.1335 16.946 14.0928 16.7412C14.0521 16.5365 14.073 16.3243 14.1529 16.1314C14.2327 15.9386 14.368 15.7737 14.5416 15.6577C14.7151 15.5418 14.9192 15.4799 15.128 15.4799C15.4079 15.4799 15.6763 15.5911 15.8743 15.789C16.0722 15.9869 16.1834 16.2554 16.1834 16.5353ZM16.5352 9.9766C16.5057 10.1392 16.4199 10.2862 16.2928 10.3918C16.1658 10.4975 16.0056 10.5551 15.8404 10.5545H5.3845L4.3616 4.92541H17.4508L16.5352 9.9766Z" fill="black"/>
</svg>
