<svg width="17" height="17" viewBox="0 0 17 17" fill="none" xmlns="http://www.w3.org/2000/svg">
<path d="M1.7 2.83333V2.26667C1.56905 2.26675 1.44216 2.31218 1.34092 2.39524C1.23968 2.47829 1.17033 2.59385 1.14467 2.72227L1.7 2.83333ZM15.3 2.83333L15.8553 2.72227C15.8297 2.59385 15.7603 2.47829 15.6591 2.39524C15.5578 2.31218 15.431 2.26675 15.3 2.26667V2.83333ZM16.4333 8.5V9.06667C16.5171 9.06662 16.5999 9.04798 16.6756 9.01209C16.7514 8.97621 16.8182 8.92398 16.8713 8.85915C16.9244 8.79433 16.9625 8.71853 16.9828 8.63722C17.0031 8.55591 17.0051 8.47111 16.9887 8.38893L16.4333 8.5ZM0.566667 8.5L0.0113333 8.38893C-0.00509247 8.47111 -0.00308603 8.55591 0.0172081 8.63722C0.0375022 8.71853 0.0755787 8.79433 0.128694 8.85915C0.18181 8.92398 0.248643 8.97621 0.324377 9.01209C0.400111 9.04798 0.482862 9.06662 0.566667 9.06667V8.5ZM3.96667 11.9H3.4V12.4667H3.96667V11.9ZM13.0333 11.9V12.4667H13.6V11.9H13.0333ZM0 17H17V15.8667H0V17ZM1.13333 8.5V16.4333H2.26667V8.5H1.13333ZM14.7333 8.5V16.4333H15.8667V8.5H14.7333ZM1.7 3.4H15.3V2.26667H1.7V3.4ZM14.7447 2.9444L15.878 8.61107L16.9887 8.38893L15.8553 2.72227L14.7447 2.9444ZM16.4333 7.93333H0.566667V9.06667H16.4333V7.93333ZM1.122 8.61107L2.25533 2.9444L1.14467 2.72227L0.0113333 8.38893L1.122 8.61107ZM1.13333 1.13333H15.8667V0H1.13333V1.13333ZM3.4 8.5V11.9H4.53333V8.5H3.4ZM3.96667 12.4667H13.0333V11.3333H3.96667V12.4667ZM13.6 11.9V8.5H12.4667V11.9H13.6Z" fill="black"/>
</svg>
